<svg xmlns="http://www.w3.org/2000/svg" width="1200" height="630" viewBox="0 0 1200 630" font-family="'Helvetica Neue', Helvetica, Arial, sans-serif">
  <rect width="1200" height="630" fill="#fbfbf9"/>
  <rect x="40" y="40" width="1120" height="550" rx="20" fill="none" stroke="#e4e3dd" stroke-width="2"/>

  <!-- Bracket Core mark -->
  <g transform="translate(104,104) scale(3.4)" fill="none" stroke="#17191c" stroke-width="2" stroke-linecap="round" stroke-linejoin="round">
    <path d="M8 4 H6 a2 2 0 0 0 -2 2 V18 a2 2 0 0 0 2 2 H8"/>
    <path d="M16 4 H18 a2 2 0 0 1 2 2 V18 a2 2 0 0 1 -2 2 H16"/>
    <circle cx="12" cy="12" r="3" fill="#0e7c66" stroke="none"/>
  </g>
  <text x="210" y="172" font-size="80" font-weight="700" letter-spacing="-2" fill="#17191c">aidekin</text>

  <!-- headline -->
  <text x="104" y="330" font-size="52" font-weight="700" letter-spacing="-1" fill="#17191c">Your on-device voice and text assistant,</text>
  <text x="104" y="394" font-size="52" font-weight="700" letter-spacing="-1" fill="#17191c">running entirely <tspan fill="#0e7c66">in the browser</tspan>.</text>

  <!-- subline -->
  <text x="104" y="470" font-size="28" fill="#5b6068">One script tag. No backend, no API keys, no per-message cost.</text>

  <!-- footer facts (mono-ish) -->
  <text x="104" y="540" font-size="24" font-family="'SF Mono', Menlo, Consolas, monospace" fill="#0e7c66" letter-spacing="1">no backend   ·   runs offline   ·   open source (MIT)</text>
</svg>
